PathFileType	4	(X/Y/Z)	RBDS012static.trc
DataRate	CameraRate	NumFrames	NumMarkers	Units	OrigDataRate	OrigDataStartFrame	OrigNumFrames
150.000000	150.000000	4	48	mm	150.000000	75	150
Frame#	Time	L.Ankle			L.Ankle.Medial			L.ASIS			L.GTR			L.Heel.Bottom			L.Heel.Lateral			L.Heel.Top			L.HF			L.Iliac.Crest			L.Knee			L.Knee.Medial			L.MT1			L.MT2			L.MT5			L.PSIS			L.Shank.Bottom.Lateral			L.Shank.Bottom.Medial			L.Shank.Top.Lateral			L.Shank.Top.Medial			L.Thigh.Bottom.Lateral			L.Thigh.Bottom.Medial			L.Thigh.Top.Lateral			L.Thigh.Top.Medial			L.TT			R.Ankle			R.Ankle.Medial			R.ASIS			R.GTR			R.Heel.Bottom			R.Heel.Lateral			R.Heel.Top			R.HF			R.Iliac.Crest			R.Knee			R.Knee.Medial			R.MT1			R.MT2			R.MT5			R.PSIS			R.Shank.Bottom.Lateral			R.Shank.Bottom.Medial			R.Shank.Top.Lateral			R.Shank.Top.Medial			R.Thigh.Bottom.Lateral			R.Thigh.Bottom.Medial			R.Thigh.Top.Lateral			R.Thigh.Top.Medial			R.TT			
		X1	Y1	Z1	X2	Y2	Z2	X3	Y3	Z3	X4	Y4	Z4	X5	Y5	Z5	X6	Y6	Z6	X7	Y7	Z7	X8	Y8	Z8	X9	Y9	Z9	X10	Y10	Z10	X11	Y11	Z11	X12	Y12	Z12	X13	Y13	Z13	X14	Y14	Z14	X15	Y15	Z15	X16	Y16	Z16	X17	Y17	Z17	X18	Y18	Z18	X19	Y19	Z19	X20	Y20	Z20	X21	Y21	Z21	X22	Y22	Z22	X23	Y23	Z23	X24	Y24	Z24	X25	Y25	Z25	X26	Y26	Z26	X27	Y27	Z27	X28	Y28	Z28	X29	Y29	Z29	X30	Y30	Z30	X31	Y31	Z31	X32	Y32	Z32	X33	Y33	Z33	X34	Y34	Z34	X35	Y35	Z35	X36	Y36	Z36	X37	Y37	Z37	X38	Y38	Z38	X39	Y39	Z39	X40	Y40	Z40	X41	Y41	Z41	X42	Y42	Z42	X43	Y43	Z43	X44	Y44	Z44	X45	Y45	Z45	X46	Y46	Z46	X47	Y47	Z47	X48	Y48	Z48	

76	0.5	715.3917846679688	107.1575088500977	1041.91943359375	743.0258178710938	120.090217590332	1125.959350585938	863.0790405273438	1039.021728515625	1083.15576171875	780.4459838867188	965.1717529296875	1042.897338867188	642.470947265625	43.10841369628906	1086.003295898438	673.75341796875	55.54501342773438	1040.08154296875	653.003662109375	92.90200042724609	1084.989135742188	755.4103393554688	482.6412048339844	1046.131591796875	805.14990234375	1105.526977539063	1051.029174804688	756.4074096679688	556.8465576171875	1047.766357421875	765.3875732421875	531.8238525390625	1177.837890625	865.3170776367188	56.72383117675781	1128.924560546875	878.6116333007813	66.4588623046875	1081.927734375	841.7678833007813	51.38779449462891	1009.925903320313	691.6241455078125	1079.850952148438	1174.629516601563	724.672607421875	187.1648254394531	1037.349609375	680.7933959960938	187.9188995361328	1070.963012695313	717.8519897460938	267.1571655273438	1028.425903320313	676.8323364257813	268.586669921875	1063.2041015625	789.1017456054688	656.1541137695313	1030.035888671875	722.8582763671875	654.875732421875	1059.908325195313	778.9172973632813	766.0505981445313	1022.321655273438	719.9680786132813	765.4039306640625	1057.1552734375	810.5740966796875	464.5591430664063	1091.822387695313	722.0984497070313	110.1500625610352	1406.081909179688	749.6940307617188	123.5429306030273	1324.52197265625	863.5800170898438	1051.122314453125	1365.191040039063	792.18310546875	961.768310546875	1408.1337890625	642.6493530273438	44.90388870239258	1373.119750976563	665.1354370117188	62.57368469238281	1408.755859375	655.1620483398438	94.59072113037109	1370.573120117188	775.1397094726563	480.5073547363281	1400.073364257813	808.228271484375	1108.959716796875	1391.0546875	773.3167114257813	556.29931640625	1397.82568359375	783.2545166015625	537.9672241210938	1268.288330078125	864.88818359375	58.60671615600586	1323.037963867188	879.758056640625	67.08284759521484	1373.509887695313	841.2391967773438	52.92014312744141	1441.992919921875	692.9616088867188	1078.7373046875	1278.45654296875	723.5501708984375	193.212890625	1409.072631835938	684.3680419921875	200.9219207763672	1377.221801757813	729.0239868164063	277.2378234863281	1420.270629882813	686.8980712890625	281.1672668457031	1387.90869140625	774.0361938476563	645.193359375	1411.257690429688	716.2491455078125	644.7531127929688	1365.003662109375	765.370361328125	754.6452026367188	1415.76416015625	712.8157348632813	755.1161499023438	1370.551879882813	828.435546875	466.1886291503906	1353.917724609375	
77	0.5066666666666667	715.3963623046875	107.1566314697266	1041.918823242188	743.0137329101563	120.074333190918	1125.974731445313	863.0592651367188	1039.020141601563	1083.157958984375	780.4298095703125	965.17431640625	1042.898681640625	642.4716796875	43.1080436706543	1086.005249023438	673.746826171875	55.53403091430664	1040.072631835938	652.9991455078125	92.90408325195313	1084.976928710938	755.4056396484375	482.6426696777344	1046.131103515625	805.1432495117188	1105.542846679688	1051.041381835938	756.383544921875	556.8502807617188	1047.758422851563	765.3854370117188	531.8258666992188	1177.838134765625	865.3193359375	56.7296028137207	1128.916625976563	878.605712890625	66.45603179931641	1081.9296875	841.766845703125	51.38891220092773	1009.914001464844	691.6129150390625	1079.850463867188	1174.647094726563	724.6658325195313	187.1662750244141	1037.336669921875	680.7825317382813	187.9199066162109	1070.964233398438	717.8452758789063	267.1558532714844	1028.430419921875	676.8283081054688	268.5921936035156	1063.214477539063	789.0964965820313	656.1600952148438	1030.036987304688	722.8475341796875	654.8803100585938	1059.91259765625	778.9010620117188	766.0492553710938	1022.326171875	719.9500732421875	765.4003295898438	1057.161010742188	810.5560302734375	464.5627746582031	1091.818481445313	722.0919189453125	110.1453094482422	1406.080932617188	749.7025756835938	123.5422210693359	1324.525390625	863.5714111328125	1051.126342773438	1365.201171875	792.1697387695313	961.77392578125	1408.144653320313	642.6507568359375	44.89725112915039	1373.111206054688	665.1320190429688	62.56663513183594	1408.75244140625	655.1575317382813	94.59340667724609	1370.5703125	775.123291015625	480.509033203125	1400.066162109375	808.2176513671875	1108.966796875	1391.05517578125	773.3003540039063	556.302490234375	1397.83447265625	783.234375	537.9681396484375	1268.295043945313	864.8829345703125	58.60811233520508	1323.032104492188	879.758056640625	67.09105682373047	1373.513549804688	841.2467651367188	52.91470336914063	1441.970336914063	692.9530639648438	1078.734497070313	1278.4638671875	723.2365112304688	192.7626953125	1408.934326171875	684.3660278320313	200.9108123779297	1377.22021484375	729.0110473632813	277.2407531738281	1420.266357421875	686.8851928710938	281.1658020019531	1387.905639648438	774.0198364257813	645.193359375	1411.264038085938	716.2242431640625	644.7717895507813	1365.010375976563	765.3583984375	754.6464233398438	1415.775146484375	712.806640625	755.116455078125	1370.563598632813	828.4271240234375	466.1969604492188	1353.922729492188	
78	0.5133333333333334	715.3931884765625	107.166618347168	1041.917602539063	743.0194702148438	120.0967254638672	1125.9775390625	863.041015625	1039.019409179688	1083.16552734375	780.4115600585938	965.1785888671875	1042.911865234375	642.4719848632813	43.10727691650391	1086.004638671875	673.744140625	55.5463752746582	1040.074584960938	653.0008544921875	92.89739990234375	1084.981323242188	755.4035034179688	482.6384582519531	1046.126220703125	805.1954956054688	1105.583251953125	1051.171875	756.3624877929688	556.835693359375	1047.768676757813	765.3795166015625	531.814453125	1177.846801757813	865.305419921875	56.71539306640625	1128.92431640625	878.606689453125	66.46647644042969	1081.917602539063	841.7694702148438	51.38442230224609	1009.910034179688	691.5917358398438	1079.8603515625	1174.649536132813	724.6620483398438	187.1673126220703	1037.354858398438	680.7816772460938	187.9131164550781	1070.970581054688	717.8324584960938	267.1547546386719	1028.432250976563	676.8273315429688	268.5853881835938	1063.217529296875	789.078369140625	656.15478515625	1030.04248046875	722.8312377929688	654.876220703125	1059.922119140625	778.8695678710938	766.0360717773438	1022.331176757813	719.9296264648438	765.398681640625	1057.1650390625	810.5584106445313	464.5579223632813	1091.82177734375	722.0938720703125	110.1396408081055	1406.083984375	749.6818237304688	123.5547103881836	1324.517211914063	863.5703735351563	1051.12646484375	1365.203491210938	792.1650390625	961.7703247070313	1408.14208984375	642.6406860351563	44.89881896972656	1373.109619140625	665.1338500976563	62.57413864135742	1408.759033203125	655.1552734375	94.58985900878906	1370.56298828125	775.1151733398438	480.4979858398438	1400.0830078125	808.2129516601563	1108.956909179688	1391.077392578125	773.289794921875	556.2951049804688	1397.83544921875	783.2097778320313	537.9680786132813	1268.299194335938	864.882568359375	58.60345458984375	1323.03466796875	879.7498168945313	67.09326934814453	1373.516479492188	841.2508544921875	52.92066192626953	1441.981323242188	692.9470825195313	1078.733154296875	1278.4716796875	723.2256469726563	192.7593688964844	1408.937866210938	684.3639526367188	200.9098358154297	1377.217651367188	728.9993286132813	277.2257690429688	1420.267578125	686.87890625	281.1512145996094	1387.905395507813	774.0068969726563	645.1953735351563	1411.2666015625	716.2127075195313	644.7553100585938	1365.010620117188	765.3408203125	754.6478881835938	1415.773315429688	712.7921142578125	755.121826171875	1370.5654296875	828.4203491210938	466.2005920410156	1353.917602539063	
79	0.52	715.3908081054688	107.1660385131836	1041.921264648438	743.0297241210938	120.0947647094727	1125.984619140625	863.0233764648438	1039.01318359375	1083.178833007813	780.4013671875	965.173095703125	1042.922729492188	642.4685668945313	43.10271835327148	1086.001220703125	673.7454223632813	55.53479766845703	1040.057495117188	652.9912719726563	92.90245056152344	1084.977661132813	755.4010620117188	482.6395263671875	1046.126098632813	805.1168212890625	1105.546875	1051.05126953125	756.3654174804688	556.8422241210938	1047.77099609375	765.3768920898438	531.8091430664063	1177.846069335938	865.3120727539063	56.72283554077148	1128.919555664063	878.6027221679688	66.46565246582031	1081.923828125	841.7610473632813	51.39131927490234	1009.917419433594	691.579345703125	1079.855590820313	1174.6591796875	724.65185546875	187.1629333496094	1037.344482421875	680.7775268554688	187.9104309082031	1070.977294921875	717.828369140625	267.1540832519531	1028.438842773438	676.8240966796875	268.5828857421875	1063.21826171875	789.0703735351563	656.1547241210938	1030.043334960938	722.825439453125	654.8746948242188	1059.932250976563	778.86572265625	766.0415649414063	1022.336059570313	719.9189453125	765.3944091796875	1057.16357421875	810.56201171875	464.5635681152344	1091.824829101563	722.093994140625	110.1386489868164	1406.072998046875	749.6831665039063	123.546028137207	1324.517578125	863.5574340820313	1051.122802734375	1365.218627929688	792.156005859375	961.767578125	1408.154541015625	642.6481323242188	44.89230728149414	1373.11181640625	665.1383666992188	62.56496047973633	1408.751586914063	655.1522827148438	94.58198547363281	1370.574462890625	775.1100463867188	480.4979248046875	1400.078002929688	808.20751953125	1108.947021484375	1391.078857421875	773.2833251953125	556.2984008789063	1397.847778320313	783.1978149414063	537.9801635742188	1268.300659179688	864.8867797851563	58.60387802124023	1323.036987304688	879.756591796875	67.09091949462891	1373.514892578125	841.24560546875	52.92465972900391	1441.982055664063	692.9315185546875	1078.72509765625	1278.489135742188	723.5433349609375	193.2024841308594	1409.080322265625	684.3611450195313	200.9012603759766	1377.218627929688	728.99755859375	277.2297058105469	1420.271606445313	686.875	281.1512145996094	1387.919555664063	773.9821166992188	645.189697265625	1411.277221679688	716.1846923828125	644.7617797851563	1365.02490234375	765.3162841796875	754.6419677734375	1415.784545898438	712.7815551757813	755.1280517578125	1370.5673828125	828.3995971679688	466.1973876953125	1353.928955078125	
